<mxfile host="Electron" modified="2024-01-07T16:44:18.474Z" agent="Mozilla/5.0 (Macintosh; Intel Mac OS X 10_15_7) AppleWebKit/537.36 (KHTML, like Gecko) draw.io/22.1.16 Chrome/120.0.6099.109 Electron/28.1.0 Safari/537.36" etag="9oB8juYPB-OH4G7msV3_" version="22.1.16" type="device">
  <diagram name="Seite-1" id="lZaK2QE6fqbZaTkMgz9R">
    <mxGraphModel dx="666" dy="536" grid="1" gridSize="10" guides="1" tooltips="1" connect="1" arrows="1" fold="1" page="1" pageScale="1" pageWidth="827" pageHeight="1169" math="0" shadow="0">
      <root>
        <mxCell id="0" />
        <mxCell id="1" parent="0" />
        <mxCell id="WM3sVLyc0oQqlUXY_xC--16" value="" style="group" vertex="1" connectable="0" parent="1">
          <mxGeometry x="70" y="80" width="90" height="80" as="geometry" />
        </mxCell>
        <mxCell id="WM3sVLyc0oQqlUXY_xC--10" value="Product" style="rounded=1;whiteSpace=wrap;html=1;verticalAlign=bottom;" vertex="1" parent="WM3sVLyc0oQqlUXY_xC--16">
          <mxGeometry width="90" height="80" as="geometry" />
        </mxCell>
        <mxCell id="WM3sVLyc0oQqlUXY_xC--11" value="Product" style="rounded=0;whiteSpace=wrap;html=1;" vertex="1" parent="WM3sVLyc0oQqlUXY_xC--16">
          <mxGeometry x="10" y="10" width="70" height="40" as="geometry" />
        </mxCell>
        <mxCell id="WM3sVLyc0oQqlUXY_xC--17" value="" style="group" vertex="1" connectable="0" parent="1">
          <mxGeometry x="280" y="80" width="90" height="80" as="geometry" />
        </mxCell>
        <mxCell id="WM3sVLyc0oQqlUXY_xC--14" value="Category" style="rounded=1;whiteSpace=wrap;html=1;verticalAlign=bottom;" vertex="1" parent="WM3sVLyc0oQqlUXY_xC--17">
          <mxGeometry width="90" height="80" as="geometry" />
        </mxCell>
        <mxCell id="WM3sVLyc0oQqlUXY_xC--15" value="Category" style="rounded=0;whiteSpace=wrap;html=1;" vertex="1" parent="WM3sVLyc0oQqlUXY_xC--17">
          <mxGeometry x="10" y="10" width="70" height="40" as="geometry" />
        </mxCell>
        <mxCell id="WM3sVLyc0oQqlUXY_xC--18" value="Category" style="endArrow=classic;html=1;rounded=0;exitX=1;exitY=0.25;exitDx=0;exitDy=0;entryX=0;entryY=0.25;entryDx=0;entryDy=0;" edge="1" parent="1" source="WM3sVLyc0oQqlUXY_xC--10" target="WM3sVLyc0oQqlUXY_xC--14">
          <mxGeometry width="50" height="50" relative="1" as="geometry">
            <mxPoint x="220" y="80" as="sourcePoint" />
            <mxPoint x="270" y="30" as="targetPoint" />
          </mxGeometry>
        </mxCell>
        <mxCell id="WM3sVLyc0oQqlUXY_xC--19" value="Product" style="endArrow=classic;html=1;rounded=0;entryX=1;entryY=0.5;entryDx=0;entryDy=0;exitX=0;exitY=0.5;exitDx=0;exitDy=0;" edge="1" parent="1" source="WM3sVLyc0oQqlUXY_xC--14" target="WM3sVLyc0oQqlUXY_xC--10">
          <mxGeometry width="50" height="50" relative="1" as="geometry">
            <mxPoint x="220" y="80" as="sourcePoint" />
            <mxPoint x="270" y="30" as="targetPoint" />
          </mxGeometry>
        </mxCell>
      </root>
    </mxGraphModel>
  </diagram>
</mxfile>
